<svg width="40" height="40" fill="none" xmlns="http://www.w3.org/2000/svg"><g clip-path="url(#clip0)"><path d="M22 11c.4 0 .8-.3.8-.8 0-.8.4-1.5 1-2.1.6-.6 1.4-1 2.2-1 .4 0 .8-.3.8-.8 0-.4-.3-.8-.8-.8h-.1c-1.2 0-2.3.5-3.2 1.4-.9.9-1.4 2-1.4 3.2 0 .2.1.4.2.5.1.1.3.4.5.4zm3.9 2.3l-.7-1.1c-.1-.1-.3-.2-.5-.2s-.4 0-.6.1c-.2.1-.3.3-.3.5s0 .4.1.6l1.4 1.9c.1.2.4.3.6.3.2 0 .5-.1.6-.3l1.4-1.9c.2-.3.2-.8-.2-1.1-.3-.2-.8-.2-1.1.2l-.7 1z" fill="#F0684F"/><path d="M21.9 16.3c.8.5 1.2 1.2 1.8 2.2v1.7c0 .4.3.8.8.8h3c.4 0 .8-.3.8-.8v-1.7c.6-1 1-1.7 1.8-2.2 2-1.4 3.2-3.6 3.2-6C33.3 6.3 30 3 26 3h-.1c-1.8 0-3.6.8-5 2.2-1.4 1.4-2.2 3.1-2.2 5-.1 2.4 1.1 4.7 3.2 6.1zm4.7 2.8v.4h-1.4v-.4h1.4zm-6.4-8.9c0-1.4.6-2.8 1.7-3.9s2.5-1.7 3.9-1.7h.1c3.2 0 5.7 2.6 5.7 5.7 0 1.9-.9 3.7-2.5 4.8-1 .7-1.6 1.6-2.2 2.5h-2.1c-.5-.9-1.1-1.8-2.2-2.5-1.5-1.1-2.5-3-2.4-4.9zm16 25.1v-.1s0-.1-.1-.1L36 35l-.1-.1-.1-.1h-.5s-.1 0-.1.1l-.1.1-.1.1-.1.1v.5s0 .1.1.1l.1.1.1.1.1.1h.5s.1 0 .1-.1l.1-.1.1-.1.1-.1v-.4z" fill="#000"/><path d="M17 20c-.11 1.765-.33 3.059-.549 3.294-.22.47-.853 1.383-1.951 2.206-.22.118-.354.618-.354.853 0 1.647.33 2.941.988 3.53-.22.588-.549 1.411-.878 2.117h-3.512c-.22-.706-1.024-2.03-1.244-2.5.659-.706 1.354-1.5 1.354-3.147 0-.353-.634-.235-.854-.353-1.098-.823-1.232-2.235-1.451-2.706-.22-.47-.44-1.765-.549-3.53.768-.47 1.317-1.058 1.866-1.764 1.097 1.53 2.854 2.353 5.268 2.353.659 0 1.207-.118 1.866-.353z" fill="#F0684F"/><path d="M32.7 34.7h-4.3v-4.9h.6c.3 0 .5-.1.7-.4.1-.2.1-.5 0-.8l-3.1-5.1c-.1-.2-.4-.4-.7-.4-.3 0-.5.1-.7.4l-3.1 5.1c-.1.2-.2.5 0 .8.1.2.4.4.7.4h.6v4.9h-2.9v-4.4c0-.2 0-.4-.1-.6 1.4-1.8 1.3-4.5 1.3-6.2v-.8c0-3.3-.8-6.2-2.5-8.3-1.6-2.2-4-3.4-6.8-3.4s-5.2 1.2-6.9 3.4c-1.6 2.1-2.5 5-2.5 8.3v.8c-.1 1.7-.1 4.4 1.3 6.2 0 .2-.1.4-.1.6v5.2c0 .4.4.8.8.8h27.7c.4 0 .8-.3.8-.8-.1-.4-.4-.8-.8-.8zm-13.7 0H5.8v-4.4c0-.3.2-.5.5-.5h2.3c.3.7.8 1.8 1 2.4.1.3.4.5.7.5h4.2c.3 0 .6-.2.7-.5.2-.6.8-1.8 1-2.4h2.3c.3 0 .5.2.5.5v4.4zm-4.3-5.4c-.2.5-.5 1.2-.8 1.8h-3.1c-.2-.6-.6-1.4-.8-1.8.6-.6.9-1.6.9-3 0-.3-.1-.5-.3-.6-1-.7-1.6-1.6-1.8-2-.2-.4-.4-1.5-.5-3 .7-.4 1.2-.9 1.7-1.5 1 1.3 2.6 2 4.8 2 .6 0 1.2-.1 1.7-.3-.1 1.5-.3 2.6-.5 2.8-.2.4-.8 1.3-1.8 2-.2.1-.3.4-.3.6 0 1.5.3 2.5.8 3zm4.8-.8c-.3-.2-.6-.2-1-.2h-2.7c-.1-.1-.4-.5-.4-1.6 1.1-.8 1.7-1.9 2-2.3.5-1 .7-4.7.7-4.7 0-.3-.1-.6-.4-.7-.2-.1-.5-.1-.8 0-.7.4-1.4.6-2.2.6-2.3 0-3.6-.8-4-2.3-.1-.3-.4-.5-.7-.6-.3 0-.6.2-.8.5-.4 1-1.2 1.8-2.2 2.3-.3.1-.5.4-.5.7 0 1.4.3 3.3.8 4.2.2.4.9 1.5 2 2.3 0 1.1-.3 1.5-.4 1.6H6.3c-.3 0-.7.1-1 .2-.9-1.4-.8-3.5-.7-4.9h-.2.1v-.9c0-6.1 3.1-10.2 7.8-10.2 4.7 0 7.8 4.1 7.8 10.2v.9c.2 1.4.2 3.5-.6 4.9zm8.1-.2c-.4 0-.8.3-.8.8v5.7H25v-4.9h.4c.4 0 .8-.3.8-.8 0-.4-.3-.8-.8-.8h-1.2l1.7-2.8 1.7 2.8z" fill="#000"/></g><defs><clipPath id="clip0"><path fill="#fff" d="M3 3h33.2v33.2H3z"/></clipPath></defs></svg>